<svg width="121" height="91" viewBox="0 0 121 91" fill="none" xmlns="http://www.w3.org/2000/svg">
<path d="M120.672 64.168C120.672 82.6 108.128 90.664 64.992 90.664C43.232 90.664 18.016 87.592 2.272 83.752L5.984 62.888C23.904 66.856 45.664 70.312 71.904 70.312C92.384 70.312 96.096 68.648 96.096 63.4C96.096 58.024 92.896 57.384 86.112 56.744L37.856 53.928C10.72 52.648 0.864 43.944 0.864 27.688C0.864 8.104 18.016 0.167999 58.464 0.167999C73.952 0.167999 99.168 2.6 116.448 6.312L112.224 25.896C97.376 22.952 74.336 20.52 52.448 20.52C28.896 20.52 25.44 21.8 25.44 27.048C25.44 31.912 28.768 32.68 36.704 33.192L84.32 36.008C109.408 37.416 120.672 46.12 120.672 64.168Z" fill="black"/>
</svg>
