<svg width="64" height="64" viewBox="0 0 64 64" fill="none" xmlns="http://www.w3.org/2000/svg">
<path d="M32 0C14.3506 0 0 14.3506 0 32C0 49.6494 14.3506 64 32 64C49.6494 64 64 49.6494 64 32C64 14.3506 49.6494 0 32 0ZM32 4C47.4877 4 60 16.5123 60 32C60 47.4877 47.4877 60 32 60C16.5123 60 4 47.4877 4 32C4 16.5123 16.5123 4 32 4ZM27.7812 18.9688C27.4 19.0059 27.0375 19.1516 26.7367 19.3888C26.4359 19.6259 26.2095 19.9444 26.0844 20.3064C25.9594 20.6685 25.9409 21.0588 26.0312 21.431C26.1214 21.8033 26.3167 22.1417 26.5938 22.4062L36.1875 32L26.5938 41.5938C26.3752 41.7699 26.1961 41.9901 26.0682 42.2399C25.9404 42.4898 25.8665 42.7638 25.8515 43.0441C25.8364 43.3244 25.8806 43.6048 25.981 43.8669C26.0815 44.129 26.236 44.3671 26.4344 44.5656C26.6329 44.764 26.871 44.9185 27.1331 45.019C27.3952 45.1194 27.6756 45.1636 27.9559 45.1485C28.2362 45.1335 28.5102 45.0596 28.7601 44.9318C29.0099 44.8039 29.2301 44.6248 29.4062 44.4062L40.4062 33.4062C40.7764 33.0318 40.984 32.5265 40.984 32C40.984 31.4735 40.7764 30.9682 40.4062 30.5938L29.4062 19.5938C29.2211 19.3982 28.9983 19.242 28.7513 19.1346C28.5043 19.0272 28.2381 18.9708 27.9688 18.9688C27.9063 18.9658 27.8437 18.9658 27.7812 18.9688Z" fill="black"/>
</svg>
