<svg width="10" height="17" viewBox="0 0 10 17" fill="none" xmlns="http://www.w3.org/2000/svg">
<path d="M8.90443 16.1017C8.71643 16.2499 8.48983 16.341 8.25157 16.3642C8.21253 16.366 8.17342 16.366 8.13438 16.3642C7.96604 16.3629 7.79969 16.3277 7.6453 16.2605C7.49092 16.1934 7.35168 16.0958 7.23594 15.9735L0.360942 9.09854C0.129582 8.86452 -0.000174252 8.54871 -0.000174281 8.21963C-0.00017431 7.89056 0.129582 7.57475 0.360942 7.34073L7.23594 0.465728C7.34603 0.329121 7.48363 0.217215 7.63981 0.137285C7.79599 0.057356 7.96724 0.0111963 8.14243 0.00180447C8.31762 -0.00758733 8.49283 0.0200005 8.65665 0.0827752C8.82048 0.14555 8.96926 0.242107 9.09332 0.366164C9.21737 0.490221 9.31393 0.639002 9.37671 0.802829C9.43948 0.966656 9.46707 1.14186 9.45768 1.31705C9.44829 1.49224 9.40213 1.6635 9.3222 1.81967C9.24227 1.97585 9.13036 2.11346 8.99375 2.22354L2.99766 8.21963L8.99376 14.2157C9.1669 14.381 9.28894 14.5926 9.34537 14.8252C9.4018 15.0579 9.39025 15.3018 9.31208 15.5281C9.23392 15.7544 9.09243 15.9534 8.90443 16.1017Z" fill="white"/>
</svg>
