<svg width="40" height="40" viewBox="0 0 40 40" fill="none" xmlns="http://www.w3.org/2000/svg">
<path d="M20 40C31.0309 40 40 31.0309 40 20C40 8.96911 31.0309 7.84105e-07 20 1.74846e-06C8.96911 2.71281e-06 -2.71281e-06 8.96911 -1.74846e-06 20C-7.84105e-07 31.0309 8.96911 40 20 40ZM20 37.5C10.3202 37.5 2.5 29.6798 2.5 20C2.5 10.3202 10.3202 2.5 20 2.5C29.6798 2.5 37.5 10.3202 37.5 20C37.5 29.6798 29.6798 37.5 20 37.5ZM22.6367 28.1445C22.875 28.1213 23.1016 28.0302 23.2896 27.882C23.4776 27.7338 23.6191 27.5347 23.6972 27.3085C23.7754 27.0822 23.787 26.8383 23.7305 26.6056C23.6741 26.373 23.5521 26.1614 23.3789 25.9961L17.3828 20L23.3789 14.0039C23.5155 13.8938 23.6274 13.7562 23.7073 13.6C23.7873 13.4439 23.8334 13.2726 23.8428 13.0974C23.8522 12.9222 23.8246 12.747 23.7619 12.5832C23.6991 12.4194 23.6025 12.2706 23.4785 12.1465C23.3544 12.0225 23.2056 11.9259 23.0418 11.8631C22.878 11.8004 22.7028 11.7728 22.5276 11.7822C22.3524 11.7916 22.1811 11.8377 22.025 11.9177C21.8688 11.9976 21.7312 12.1095 21.6211 12.2461L14.7461 19.1211C14.5147 19.3551 14.385 19.6709 14.385 20C14.385 20.3291 14.5147 20.6449 14.7461 20.8789L21.6211 27.7539C21.7368 27.8762 21.8761 27.9738 22.0305 28.0409C22.1848 28.108 22.3512 28.1433 22.5195 28.1445C22.5586 28.1464 22.5977 28.1464 22.6367 28.1445Z" fill="white"/>
</svg>
