<svg width="10" height="17" viewBox="0 0 10 17" fill="none" xmlns="http://www.w3.org/2000/svg">
<path d="M0.555042 0.263882C0.743039 0.115675 0.969639 0.0245624 1.2079 0.00137412C1.24695 -0.000457752 1.28605 -0.000457745 1.32509 0.00137414C1.49343 0.00263732 1.65979 0.0378881 1.81417 0.105012C1.96856 0.172136 2.10779 0.26975 2.22353 0.391999L9.09853 7.267C9.32989 7.50102 9.45964 7.81683 9.45964 8.14591C9.45964 8.47499 9.32989 8.79079 9.09853 9.02481L2.22353 15.8998C2.11344 16.0364 1.97584 16.1483 1.81966 16.2283C1.66348 16.3082 1.49223 16.3543 1.31704 16.3637C1.14185 16.3731 0.966642 16.3455 0.802815 16.2828C0.638988 16.22 0.490207 16.1234 0.36615 15.9994C0.242094 15.8753 0.145536 15.7265 0.0827605 15.5627C0.0199852 15.3989 -0.00760129 15.2237 0.00178981 15.0485C0.0111809 14.8733 0.0573417 14.702 0.137271 14.5459C0.2172 14.3897 0.329107 14.2521 0.465714 14.142L6.46181 8.14591L0.465716 2.14981C0.292569 1.9845 0.170528 1.77295 0.114099 1.5403C0.0576691 1.30766 0.0692235 1.0637 0.14739 0.83743C0.225556 0.611159 0.367045 0.41209 0.555042 0.263882Z" fill="white"/>
</svg>
