<svg width="40" height="40" viewBox="0 0 40 40" fill="none" xmlns="http://www.w3.org/2000/svg">
<path d="M20 0C8.96911 0 0 8.96911 0 20C0 31.0309 8.96911 40 20 40C31.0309 40 40 31.0309 40 20C40 8.96911 31.0309 0 20 0ZM20 2.5C29.6798 2.5 37.5 10.3202 37.5 20C37.5 29.6798 29.6798 37.5 20 37.5C10.3202 37.5 2.5 29.6798 2.5 20C2.5 10.3202 10.3202 2.5 20 2.5ZM17.3633 11.8555C17.125 11.8787 16.8984 11.9698 16.7104 12.118C16.5224 12.2662 16.3809 12.4653 16.3028 12.6915C16.2246 12.9178 16.213 13.1618 16.2695 13.3944C16.3259 13.627 16.4479 13.8386 16.6211 14.0039L22.6172 20L16.6211 25.9961C16.4845 26.1062 16.3726 26.2438 16.2927 26.4C16.2127 26.5561 16.1666 26.7274 16.1572 26.9026C16.1478 27.0778 16.1754 27.253 16.2381 27.4168C16.3009 27.5806 16.3975 27.7294 16.5215 27.8535C16.6456 27.9775 16.7944 28.0741 16.9582 28.1369C17.122 28.1996 17.2972 28.2272 17.4724 28.2178C17.6476 28.2084 17.8189 28.1623 17.975 28.0823C18.1312 28.0024 18.2688 27.8905 18.3789 27.7539L25.2539 20.8789C25.4853 20.6449 25.615 20.3291 25.615 20C25.615 19.6709 25.4853 19.3551 25.2539 19.1211L18.3789 12.2461C18.2632 12.1238 18.1239 12.0262 17.9695 11.9591C17.8152 11.892 17.6488 11.8567 17.4805 11.8555C17.4414 11.8536 17.4023 11.8536 17.3633 11.8555Z" fill="white"/>
</svg>
